<svg t="1711093438292" class="icon" viewBox="0 0 1024 1024" version="1.1" xmlns="http://www.w3.org/2000/svg" p-id="2163"
     width="40" height="40">
    <path d="M512 512m-512 0a512 512 0 1 0 1024 0 512 512 0 1 0-1024 0Z" fill="#4AB8A1" p-id="2164"></path>
    <path d="M1013.144 617.168c-0.032-0.064-0.048-0.152-0.08-0.192a33.736 33.736 0 0 0-1.968-4.888 35.992 35.992 0 0 0-1.984-4.912 35.456 35.456 0 0 0-1.984-4.904 34.256 34.256 0 0 0-2-4.928 33.256 33.256 0 0 0-1.968-4.88 36.12 36.12 0 0 0-1.984-4.92 35.456 35.456 0 0 0-1.984-4.904 33.36 33.36 0 0 0-2-4.928 31.576 31.576 0 0 0-1.968-4.88 34.176 34.176 0 0 0-1.984-4.92 33.72 33.72 0 0 0-2-4.928 32.832 32.832 0 0 0-1.976-4.888 33.736 33.736 0 0 0-1.992-4.928 32.376 32.376 0 0 0-1.976-4.88 34.056 34.056 0 0 0-1.984-4.912 33.2 33.2 0 0 0-1.984-4.904 33.856 33.856 0 0 0-1.992-4.936 32.376 32.376 0 0 0-1.976-4.88 34.056 34.056 0 0 0-1.984-4.912 33.2 33.2 0 0 0-1.984-4.904 33.856 33.856 0 0 0-1.992-4.936 32.376 32.376 0 0 0-1.976-4.88 35.016 35.016 0 0 0-1.976-4.912 34.752 34.752 0 0 0-2-4.936 31.544 31.544 0 0 0-1.984-4.88 32.536 32.536 0 0 0-1.984-4.928 31.328 31.328 0 0 0-1.984-4.888 31.872 31.872 0 0 0-1.984-4.904 31.984 31.984 0 0 0-1.984-4.912 32.88 32.88 0 0 0-1.984-4.928 31.328 31.328 0 0 0-1.984-4.888 31.872 31.872 0 0 0-1.984-4.904 31.984 31.984 0 0 0-1.984-4.912 32.88 32.88 0 0 0-1.984-4.928 32.144 32.144 0 0 0-1.976-4.888 33.568 33.568 0 0 0-1.984-4.904 33.68 33.68 0 0 0-1.984-4.912 33.72 33.72 0 0 0-2-4.928 31.872 31.872 0 0 0-1.984-4.904 32.144 32.144 0 0 0-1.976-4.888 33.68 33.68 0 0 0-1.984-4.912 32.32 32.32 0 0 0-1.984-4.912 31.608 31.608 0 0 0-1.992-4.92 30.24 30.24 0 0 0-1.984-4.896 32.32 32.32 0 0 0-1.984-4.912 33.624 33.624 0 0 0-1.992-4.92 32.208 32.208 0 0 0-1.984-4.904 32.768 32.768 0 0 0-1.984-4.92 33.936 33.936 0 0 0-1.984-4.904 34.512 34.512 0 0 0-2-4.92 32.208 32.208 0 0 0-1.984-4.904 30.936 30.936 0 0 0-2-4.928 32.544 32.544 0 0 0-1.984-4.904 32.208 32.208 0 0 0-1.984-4.904 32.768 32.768 0 0 0-1.984-4.92 33.048 33.048 0 0 0-1.984-4.904 32.768 32.768 0 0 0-1.984-4.92 33.048 33.048 0 0 0-1.984-4.904 32.744 32.744 0 0 0-2-4.92 32.224 32.224 0 0 0-1.976-4.904 32.768 32.768 0 0 0-1.984-4.92 33.048 33.048 0 0 0-1.984-4.904 33.624 33.624 0 0 0-1.992-4.92 33.048 33.048 0 0 0-1.984-4.904 33.36 33.36 0 0 0-2-4.928 32.544 32.544 0 0 0-1.984-4.904 33.048 33.048 0 0 0-1.984-4.904 32.752 32.752 0 0 0-1.992-4.92 32.208 32.208 0 0 0-1.984-4.904 33.624 33.624 0 0 0-1.992-4.92 31.872 31.872 0 0 0-1.984-4.904 31.936 31.936 0 0 0-1.992-4.92 33.064 33.064 0 0 0-1.976-4.904 34.512 34.512 0 0 0-2-4.92 32.208 32.208 0 0 0-1.984-4.904 32.768 32.768 0 0 0-1.984-4.92 33.936 33.936 0 0 0-1.984-4.904 36.416 36.416 0 0 0-1.984-4.912 34.752 34.752 0 0 0-2-4.936 32.32 32.32 0 0 0-1.984-4.888 32.768 32.768 0 0 0-1.984-4.92 33.048 33.048 0 0 0-1.984-4.904 32.744 32.744 0 0 0-2-4.92 31.408 31.408 0 0 0-1.984-4.904c-1.616-4.968-3.704-8.584-6.344-10.256-19-12-44 14-70 36-19.184 16.24-43.984 30.304-58.344 45-38.824-9.464-94.584-65.928-199.664-64-108.064-1.984-164.008 57.888-202.968 64.76-14.656-13.544-37.256-26.72-55.032-41.76-26-22-51-48-70-36-18.456 11.656-10.496 114.832 4.648 148.216 0.648 1.768 1.312 3.424 1.992 4.928 0.648 1.752 1.304 3.408 1.984 4.896 0.648 1.768 1.312 3.424 1.992 4.928 0.648 1.752 1.304 3.408 1.984 4.896 0.656 1.776 1.32 3.448 2 4.96 0.64 1.744 1.296 3.384 1.968 4.864 0.648 1.76 1.312 3.416 1.984 4.912 0.656 1.768 1.312 3.424 1.992 4.928 0.648 1.752 1.304 3.408 1.976 4.896 0.648 1.76 1.312 3.424 1.992 4.92 0.648 1.768 1.312 3.432 1.992 4.928 0.648 1.76 1.304 3.408 1.976 4.88 0.648 1.76 1.304 3.432 1.984 4.912 0.648 1.768 1.312 3.424 1.992 4.904 0.648 1.784 1.312 3.44 1.992 4.936 0.648 1.752 1.304 3.408 1.976 4.88 0.648 1.776 1.304 3.432 1.984 4.912 0.648 1.76 1.312 3.424 1.984 4.904 0.656 1.792 1.328 3.464 2.008 4.968 0.64 1.736 1.296 3.376 1.968 4.848 0.648 1.76 1.304 3.424 1.984 4.912 0.648 1.76 1.304 3.424 1.984 4.904 0.648 1.768 1.304 3.432 1.984 4.912 0.648 1.776 1.312 3.448 1.992 4.936 0.648 1.752 1.304 3.4 1.976 4.88 0.648 1.76 1.304 3.424 1.984 4.904 0.648 1.768 1.304 3.424 1.984 4.912 0.648 1.776 1.312 3.448 1.992 4.936 0.648 1.752 1.304 3.4 1.976 4.88 0.648 1.76 1.304 3.424 1.984 4.904 0.648 1.768 1.304 3.424 1.984 4.912 0.656 1.792 1.32 3.464 2.008 4.968 0.64 1.736 1.296 3.376 1.96 4.848 0.648 1.76 1.312 3.424 1.984 4.904 0.648 1.768 1.312 3.424 1.984 4.912 0.648 1.76 1.312 3.424 1.984 4.912 0.656 1.776 1.32 3.44 2 4.936 0.648 1.752 1.304 3.392 1.976 4.872 0.648 1.768 1.312 3.424 1.984 4.912 0.648 1.76 1.312 3.424 1.984 4.912 0.656 1.776 1.32 3.44 2 4.936 0.648 1.752 1.304 3.392 1.976 4.872 0.648 1.768 1.312 3.424 1.984 4.912 0.648 1.76 1.312 3.424 1.984 4.912 0.656 1.776 1.32 3.44 2 4.936 0.648 1.752 1.312 3.424 1.992 4.904 0.648 1.752 1.304 3.4 1.976 4.872 0.648 1.768 1.304 3.432 1.984 4.92 0.648 1.752 1.304 3.424 1.984 4.904 0.648 1.784 1.312 3.44 1.992 4.936 0.648 1.752 1.304 3.4 1.976 4.872 0.592 1.608 1.184 3.16 1.808 4.528 3.96 28.912 10.272 58.2 20.08 81.944 0.64 1.672 1.312 3.288 1.984 4.912 0.648 1.688 1.328 3.312 2.008 4.952 0.632 1.656 1.296 3.248 1.96 4.856 0.64 1.672 1.312 3.288 1.984 4.912 0.648 1.696 1.336 3.336 2.016 4.984 0.632 1.648 1.296 3.24 1.96 4.832 0.648 1.688 1.328 3.328 2.008 4.968 0.632 1.656 1.296 3.24 1.96 4.848 0.64 1.672 1.312 3.288 1.984 4.912 0.64 1.672 1.312 3.28 1.984 4.904 0.648 1.688 1.328 3.328 2.008 4.96 0.632 1.656 1.296 3.248 1.96 4.856 0.64 1.672 1.312 3.288 1.984 4.912 0.64 1.672 1.312 3.28 1.984 4.904 0.648 1.688 1.328 3.32 2.008 4.96 0.632 1.656 1.296 3.248 1.96 4.848 0.64 1.68 1.312 3.296 1.984 4.92 0.64 1.672 1.312 3.28 1.984 4.904 0.656 1.72 1.344 3.376 2.04 5.048 0.624 1.616 1.28 3.184 1.936 4.784 0.64 1.672 1.312 3.28 1.984 4.904 0.64 1.672 1.312 3.288 1.984 4.912 0.64 1.672 1.312 3.288 1.984 4.912 0.648 1.688 1.328 3.32 2.008 4.96 0.632 1.648 1.296 3.24 1.96 4.848 0.64 1.672 1.312 3.288 1.984 4.912 0.64 1.672 1.312 3.288 1.984 4.912 0.648 1.688 1.328 3.32 2.008 4.952 0.632 1.656 1.296 3.248 1.96 4.856 0.64 1.672 1.312 3.288 1.984 4.912 0.64 1.672 1.312 3.288 1.984 4.912 0.656 1.72 1.344 3.376 2.032 5.04 0.624 1.616 1.288 3.192 1.936 4.784 0.64 1.672 1.312 3.288 1.984 4.912 0.64 1.672 1.312 3.288 1.984 4.904 0.64 1.672 1.312 3.296 1.984 4.92 0.648 1.688 1.328 3.312 2.008 4.952 0.632 1.656 1.296 3.248 1.96 4.856 0.64 1.672 1.312 3.28 1.984 4.904 0.64 1.672 1.312 3.296 1.984 4.92 0.648 1.688 1.328 3.312 2.008 4.952 0.632 1.656 1.296 3.248 1.96 4.856 0.64 1.672 1.312 3.28 1.984 4.904 0.64 1.672 1.312 3.296 1.984 4.912 0.648 1.696 1.328 3.32 2.008 4.96 0.64 1.68 1.32 3.304 1.992 4.928 0.632 1.648 1.296 3.24 1.96 4.832 0.64 1.672 1.312 3.288 1.984 4.912 0.64 1.672 1.312 3.288 1.984 4.912 0.648 1.688 1.328 3.32 2.008 4.96 0.632 1.648 1.296 3.24 1.96 4.848 0.64 1.672 1.312 3.288 1.984 4.912 0.64 1.672 1.312 3.288 1.984 4.912 0.648 1.688 1.328 3.32 2.008 4.952 0.632 1.656 1.296 3.248 1.96 4.856 0.64 1.672 1.312 3.288 1.984 4.912 0.64 1.672 1.312 3.288 1.984 4.912 0.648 1.688 1.328 3.312 2.008 4.952 0.632 1.656 1.296 3.248 1.96 4.856 0.648 1.696 1.336 3.336 2.016 4.984 0.632 1.648 1.296 3.24 1.96 4.84 0.64 1.672 1.312 3.28 1.984 4.904 0.648 1.688 1.328 3.328 2.008 4.96 0.632 1.656 1.296 3.248 1.96 4.856 0.64 1.672 1.312 3.288 1.984 4.912 0.64 1.672 1.312 3.28 1.984 4.904 0.648 1.688 1.328 3.32 2.008 4.96 0.632 1.656 1.296 3.248 1.96 4.848 0.32 0.84 0.664 1.656 1 2.488 21.072 2.648 42.504 4.168 64.288 4.168 246.776 0.24 452.688-174.272 501.208-406.592z"
          fill="#43A691" p-id="2165"></path>
    <path d="M419.336 729.112a99.816 92.664 90 1 0 185.328 0 99.816 92.664 90 1 0-185.328 0Z" fill="#F2C179"
          p-id="2166"></path>
    <path d="M512 629.296c-51.176 0-92.664 44.696-92.664 99.816 0 19.888 5.464 38.376 14.776 53.936 28.6 7.336 54.72 6.064 77.896-10.936 23.176 17 49.296 18.272 77.896 10.936a104.808 104.808 0 0 0 14.776-53.936c-0.016-55.12-41.512-99.816-92.68-99.816z"
          fill="#E6B773" p-id="2167"></path>
    <path d="M323 295.112c-6.664-20.992-43-39-69-61s-51-48-70-36-10 121 6 151 67 61 107 40 26-94 26-94z" fill="#F2C179"
          p-id="2168"></path>
    <path d="M268.4 363.992c-19.576 0-42.632-15.808-50.168-29.944-8.336-15.632-14.368-69.256-12.784-99.144 6.008 4.68 12.64 10.456 17.504 14.696 3.432 2.984 6.888 6 10.368 8.936 9.392 7.952 19.392 15.016 29.064 21.848 10.32 7.296 25.616 18.104 29.72 24 3.096 20.768 0.992 50.624-9.992 56.392-4.112 2.168-8.6 3.216-13.712 3.216z"
          fill="#E6B773" p-id="2169"></path>
    <path d="M701 291.112c6.664-20.992 43-39 69-61s51-48 70-36 10 121-6 151-67 61-107 40-26-94-26-94z" fill="#F2C179"
          p-id="2170"></path>
    <path d="M755.6 359.992c-5.12 0-9.6-1.048-13.728-3.216-11.016-5.784-13.096-35.832-9.936-56.696 3.664-5.304 19.216-16.304 29.672-23.688 9.664-6.832 19.664-13.904 29.064-21.848 3.488-2.944 6.936-5.952 10.368-8.936a448.944 448.944 0 0 1 17.504-14.696c1.576 29.888-4.456 83.504-12.784 99.144-7.544 14.128-30.592 29.936-50.16 29.936z"
          fill="#E6B773" p-id="2171"></path>
    <path d="M716 276.112c-39-6-95-67-204-65-109-2-165 59-204 65S217 326.112 224 379.112s64 81 62 104-3 212 61 246 120 60 165 27c45 33 101 7 165-27s63-223 61-246 55-51 62-104-45-97-84-103z"
          fill="#F2CB91" p-id="2172"></path>
    <path d="M242 431.112a49.936 49.936 0 0 1 23.992-42.64c36.52 9.848 57.56 29.856 74.472 30.52-19.328-0.76-4.304 46.496-35.384 60.328a49.68 49.68 0 0 1-13.072 1.792 50 50 0 0 1-50.008-50z"
          fill="#F5F5F5" p-id="2173"></path>
    <path d="M292 431.112m-16 0a16 16 0 1 0 32 0 16 16 0 1 0-32 0Z" fill="#242424" p-id="2174"></path>
    <path d="M242 422.24c29.664-58.248 75-3.904 98.464-3.248 20.208 9.008 74.2 12.552 87.536 1.12 13.336-8.776 24-4.144 22-9.792-87.664 16.992-162.16-38.384-184-35.656-24 3-31.664 32.664-42.64 46.664-6.184 7.888 18.64 0.912 18.64 0.912z"
          fill="#CC803D" p-id="2175"></path>
    <path d="M500.248 748.528c-11.128 8.168-35.184 20.264-47.616 21.984 17.488 2.36 39.992 0.248 59.616-14.832a78.416 78.416 0 0 1-12-7.152zM716 276.112c-39-6-95-67-204-65-4.128-0.072-8.024 0.104-12 0.2 101.064 2.504 154.488 59.024 192 64.8 39 6 91 50 84 103s-64 81-62 104 3 212-61 246c-38.304 20.344-73.712 37.72-105.64 41.408 37.832 5.216 81.472-15.816 129.64-41.408 64-34 63-223 61-246s55-51 62-104-45-97-84-103z"
          fill="#E6C18A" p-id="2176"></path>
    <path d="M782 431.112a49.936 49.936 0 0 0-23.992-42.64c-36.52 9.848-57.552 29.856-74.48 30.52 19.328-0.76 4.312 46.496 35.392 60.328a49.624 49.624 0 0 0 13.072 1.792 50 50 0 0 0 50.008-50z"
          fill="#F5F5F5" p-id="2177"></path>
    <path d="M732 431.112m-16 0a16 16 0 1 0 32 0 16 16 0 1 0-32 0Z" fill="#242424" p-id="2178"></path>
    <path d="M782 422.24c-29.664-58.248-75-3.904-98.472-3.248-20.2 9.008-74.192 12.552-87.528 1.12-13.336-8.776-24-4.144-22-9.792 87.664 16.992 162.16-38.384 184-35.656 24 3 31.664 32.664 42.64 46.664 6.192 7.888-18.64 0.912-18.64 0.912z"
          fill="#CC803D" p-id="2179"></path>
    <path d="M596 420.112c0-116-66-178-84-178s-84 62-84 178c-21 21-41 38-33 61s15 35 11 60S365 779.112 512 752.112c147 27 110-186 106-211s3-37 11-60-12-40-33-61z"
          fill="#F2C179" p-id="2180"></path>
    <path d="M596 420.112c0-116-66-178-84-178-2.888 0-7.104 1.776-12 4.936 25.584 16.544 72 75.688 72 173.064 21 21 41 38 33 61s-15 35-11 60c3.632 22.704 34.456 200.44-70.024 212.672 132.912 13.392 97.912-188.376 94.024-212.672-4-25 3-37 11-60s-12-40-33-61z"
          fill="#E6B773" p-id="2181"></path>
    <path d="M615.8 466.416a16.008 16.008 0 0 0-20-10.6L512 481.544l-83.8-25.736a16 16 0 1 0-9.4 30.584L496 510.112v169.504a16 16 0 0 0 32 0V510.112l77.2-23.704a16 16 0 0 0 10.6-19.992z"
          fill="#242424" p-id="2182"></path>
</svg>